<svg width="22" height="23" viewBox="0 0 22 23" fill="none" xmlns="http://www.w3.org/2000/svg">
<path d="M20.1667 7.18636V14.868C20.1667 17.8105 17.7834 20.1939 14.8409 20.1939H7.15921C4.21671 20.1939 1.83337 17.8105 1.83337 14.868V7.18636C1.83337 4.90386 2.76837 3.24469 4.42754 2.43802C5.03254 2.14469 5.72921 2.60302 5.72921 3.27219V11.4122C5.72921 12.503 6.15087 13.3739 6.91171 13.8139C7.68171 14.2447 8.65337 14.153 9.64337 13.5572L10.835 12.8422C10.9084 12.8055 11.0917 12.8055 11.1467 12.833L12.3567 13.5572C13.0167 13.9514 13.585 14.0797 14.0434 14.0797C14.52 14.0797 14.8867 13.933 15.1067 13.8047C15.8492 13.3739 16.2709 12.503 16.2709 11.4122V3.27219C16.2709 2.60302 16.9767 2.14469 17.5725 2.43802C19.2317 3.24469 20.1667 4.90386 20.1667 7.18636Z" fill="white"/>
<path d="M13.9791 1.86035C14.4833 1.86035 14.8958 2.27285 14.8958 2.77702V11.412C14.8958 11.9987 14.7216 12.4387 14.4191 12.6129C14.1075 12.7962 13.6125 12.7045 13.0625 12.3745L11.8525 11.6504C11.385 11.3662 10.615 11.3662 10.1475 11.6504L8.93746 12.3745C8.38746 12.7045 7.89246 12.787 7.58079 12.6129C7.27829 12.4387 7.10413 11.9987 7.10413 11.412V2.77702C7.10413 2.27285 7.51663 1.86035 8.02079 1.86035H13.9791Z" fill="white"/>
</svg>
