<svg width="24" height="25" viewBox="0 0 24 25" fill="none" xmlns="http://www.w3.org/2000/svg">
<g id="vuesax/bold/box">
<g id="box">
<path id="Vector" d="M20.1 7.66656C20.1 8.20656 19.81 8.69656 19.35 8.94656L17.61 9.88656L16.13 10.6766L13.06 12.3366C12.73 12.5166 12.37 12.6066 12 12.6066C11.63 12.6066 11.27 12.5166 10.94 12.3366L4.65002 8.94656C4.19002 8.69656 3.90002 8.20656 3.90002 7.66656C3.90002 7.12656 4.19002 6.63656 4.65002 6.38656L6.62002 5.32656L8.19002 4.47656L10.94 2.99656C11.6 2.63656 12.4 2.63656 13.06 2.99656L19.35 6.38656C19.81 6.63656 20.1 7.12656 20.1 7.66656Z" fill="white"/>
<path id="Vector_2" d="M9.89997 13.5167L4.04997 10.5967C3.59997 10.3667 3.07997 10.3967 2.64997 10.6567C2.21997 10.9167 1.96997 11.3767 1.96997 11.8767V17.4067C1.96997 18.3667 2.49997 19.2267 3.35997 19.6567L9.20997 22.5767C9.40997 22.6767 9.62997 22.7267 9.84997 22.7267C10.11 22.7267 10.37 22.6567 10.6 22.5067C11.03 22.2467 11.28 21.7867 11.28 21.2867V15.7567C11.29 14.8067 10.76 13.9467 9.89997 13.5167Z" fill="white"/>
<path id="Vector_3" d="M22.03 11.8767V17.4067C22.03 18.3567 21.5 19.2167 20.64 19.6467L14.79 22.5767C14.59 22.6767 14.37 22.7267 14.15 22.7267C13.89 22.7267 13.63 22.6567 13.39 22.5067C12.97 22.2467 12.71 21.7867 12.71 21.2867V15.7667C12.71 14.8067 13.24 13.9467 14.1 13.5167L16.25 12.4467L17.75 11.6967L19.95 10.5967C20.4 10.3667 20.92 10.3867 21.35 10.6567C21.77 10.9167 22.03 11.3767 22.03 11.8767Z" fill="white"/>
<path id="Vector_4" d="M17.61 9.88656L16.13 10.6766L6.62 5.32656L8.18999 4.47656L17.37 9.65656C17.47 9.71656 17.55 9.79656 17.61 9.88656Z" fill="white"/>
<path id="Vector_5" d="M17.75 11.6968V13.9668C17.75 14.3768 17.41 14.7168 17 14.7168C16.59 14.7168 16.25 14.3768 16.25 13.9668V12.4468L17.75 11.6968Z" fill="white"/>
</g>
</g>
</svg>
