<svg width="13" height="12" viewBox="0 0 13 12" fill="none" xmlns="http://www.w3.org/2000/svg">
    <g clip-path="url(#clip0_2314_60523)">
        <path d="M6.5 10.5C8.98528 10.5 11 8.48528 11 6C11 3.51472 8.98528 1.5 6.5 1.5C4.01472 1.5 2 3.51472 2 6C2 8.48528 4.01472 10.5 6.5 10.5Z" stroke="#979797" stroke-linecap="round" stroke-linejoin="round"/>
        <path d="M6.125 5.625C6.22446 5.625 6.31984 5.66451 6.39016 5.73484C6.46049 5.80516 6.5 5.90054 6.5 6V7.875C6.5 7.97446 6.53951 8.06984 6.60983 8.14017C6.68016 8.21049 6.77554 8.25 6.875 8.25" stroke="#979797" stroke-linecap="round" stroke-linejoin="round"/>
        <path d="M6.3125 4.5C6.62316 4.5 6.875 4.24816 6.875 3.9375C6.875 3.62684 6.62316 3.375 6.3125 3.375C6.00184 3.375 5.75 3.62684 5.75 3.9375C5.75 4.24816 6.00184 4.5 6.3125 4.5Z" fill="#979797"/>
    </g>
    <defs>
        <clipPath id="clip0_2314_60523">
            <rect width="12" height="12" fill="white" transform="translate(0.5)"/>
        </clipPath>
    </defs>
</svg>
