<svg width="9" height="9" viewBox="0 0 9 9" fill="none" xmlns="http://www.w3.org/2000/svg">
<path id="Vector" d="M4.07324 0.0195312C1.86924 0.0195312 0.0732422 1.81553 0.0732422 4.01953C0.0732422 6.22353 1.86924 8.01953 4.07324 8.01953C6.27724 8.01953 8.07324 6.22353 8.07324 4.01953C8.07324 1.81553 6.27724 0.0195312 4.07324 0.0195312ZM3.77324 2.41953C3.77324 2.25553 3.90924 2.11953 4.07324 2.11953C4.23724 2.11953 4.37324 2.25553 4.37324 2.41953V4.41953C4.37324 4.58353 4.23724 4.71953 4.07324 4.71953C3.90924 4.71953 3.77324 4.58353 3.77324 4.41953V2.41953ZM4.44124 5.77153C4.42124 5.82353 4.39324 5.86353 4.35724 5.90353C4.31724 5.93953 4.27324 5.96753 4.22524 5.98753C4.17724 6.00753 4.12524 6.01953 4.07324 6.01953C4.02124 6.01953 3.96924 6.00753 3.92124 5.98753C3.87324 5.96753 3.82924 5.93953 3.78924 5.90353C3.75324 5.86353 3.72524 5.82353 3.70524 5.77153C3.68524 5.72353 3.67324 5.67153 3.67324 5.61953C3.67324 5.56753 3.68524 5.51553 3.70524 5.46753C3.72524 5.41953 3.75324 5.37553 3.78924 5.33553C3.82924 5.29953 3.87324 5.27153 3.92124 5.25153C4.01724 5.21153 4.12924 5.21153 4.22524 5.25153C4.27324 5.27153 4.31724 5.29953 4.35724 5.33553C4.39324 5.37553 4.42124 5.41953 4.44124 5.46753C4.46124 5.51553 4.47324 5.56753 4.47324 5.61953C4.47324 5.67153 4.46124 5.72353 4.44124 5.77153Z" fill="#F6F6F6"/>
</svg>
