<svg width="46" height="58" viewBox="0 0 46 58" fill="none" xmlns="http://www.w3.org/2000/svg">
<path d="M37.8 21.8C36.3 21 34.5 20.5 32.7 20.5C28.6 20.5 25 22.8 23.2 26.2C21.4 22.8 17.8 20.5 13.7 20.5C11.9 20.5 10.2 21 8.7 21.7L2.5 17V36.5C2.5 47.9 11.9 57.3 23.3 57.3C34.7 57.3 44 48.1 44 36.6V17.8L37.8 21.8Z" fill="#3EB44A"/>
<path d="M40.1 38.5C39.4 47.3 32.1 54.2 23.1 54.2C14.2 54.2 6.80001 47.3 6.10001 38.6C8.00001 40.9 10.8 42.4 14 42.4C16.7 42.4 19.2 41.3 21 39.6C22.1 38.6 23.8 38.6 24.9 39.6C26.7 41.3 29.2 42.4 31.9 42.4C35.3 42.4 38.3 40.9 40.1 38.5Z" fill="#FADD00"/>
<path d="M35.7 0.599976H30V8.89997H35.7V0.599976Z" fill="#3FAD49"/>
<path d="M23.1 3.69995L0.100006 9.79995L8.30001 15.2V19.3C8.30001 19.3 11 17.5 14.3 17.6C20.8 17.9 23 21.9 23 21.9C23 21.9 25.2 17.9 31.7 17.6C35 17.5 37.7 19.3 37.7 19.3V15.2L45.9 9.79995L23.1 3.69995Z" fill="#3EB44A"/>
<path d="M38.9 11L34.9 13.6V14.9C34 14.7 33 14.6 32.1 14.6C28.3 14.6 25.2 15.7 23.2 17.8C21.2 15.7 18.1 14.6 14.3 14.6C13.4 14.6 12.5 14.7 11.6 14.9V13.2L7.80002 11L22.9 6.79999L38.9 11Z" fill="#FADD00"/>
<path d="M13.5 39.4C17.9735 39.4 21.6 35.7735 21.6 31.2999C21.6 26.8264 17.9735 23.2 13.5 23.2C9.02652 23.2 5.40002 26.8264 5.40002 31.2999C5.40002 35.7735 9.02652 39.4 13.5 39.4Z" fill="white"/>
<path d="M13.6 36.8C16.6376 36.8 19.1 34.3376 19.1 31.3C19.1 28.2624 16.6376 25.8 13.6 25.8C10.5624 25.8 8.10001 28.2624 8.10001 31.3C8.10001 34.3376 10.5624 36.8 13.6 36.8Z" fill="black"/>
<path d="M11.2 30.4C12.7464 30.4 14 29.1464 14 27.6C14 26.0536 12.7464 24.8 11.2 24.8C9.65362 24.8 8.40002 26.0536 8.40002 27.6C8.40002 29.1464 9.65362 30.4 11.2 30.4Z" fill="white"/>
<path d="M32.6 39.4C37.0735 39.4 40.7 35.7735 40.7 31.2999C40.7 26.8264 37.0735 23.2 32.6 23.2C28.1265 23.2 24.5 26.8264 24.5 31.2999C24.5 35.7735 28.1265 39.4 32.6 39.4Z" fill="white"/>
<path d="M32.7 36.8C35.7376 36.8 38.2 34.3376 38.2 31.3C38.2 28.2624 35.7376 25.8 32.7 25.8C29.6624 25.8 27.2 28.2624 27.2 31.3C27.2 34.3376 29.6624 36.8 32.7 36.8Z" fill="black"/>
<path d="M30.3 30.4C31.8464 30.4 33.1 29.1464 33.1 27.6C33.1 26.0536 31.8464 24.8 30.3 24.8C28.7536 24.8 27.5 26.0536 27.5 27.6C27.5 29.1464 28.7536 30.4 30.3 30.4Z" fill="white"/>
<path d="M27.9 40.8L23.1 47.7L18.3 40.8C18.3 40.8 19.5 38 22.2 37.5C22.5 37.4 22.8 37.4 23.1 37.4C23.4 37.4 23.7 37.4 24 37.5C26.7 38 27.9 40.8 27.9 40.8Z" fill="white"/>
<path d="M23.1 49.4L17.2 40.9L17.4 40.4C17.5 40.3 18.9 37.2 22 36.5C22.5 36.4 23.1 36.4 23.6 36.4L24.1 36.5L24.8 36.6V36.7C27.4 37.6 28.6 40.2 28.6 40.4L28.8 40.9L28.4 41.4L23.1 49.4ZM19.5 40.7L23.1 46L26.7 40.7C26.3 40.1 25.5 39 24.3 38.5V38.6L23.8 38.4C23.3 38.3 22.9 38.3 22.5 38.4C20.9 38.7 19.9 40 19.5 40.7Z" fill="#3EB44A"/>
<path d="M16.8 37.1C17.6284 37.1 18.3 36.4284 18.3 35.6C18.3 34.7715 17.6284 34.1 16.8 34.1C15.9716 34.1 15.3 34.7715 15.3 35.6C15.3 36.4284 15.9716 37.1 16.8 37.1Z" fill="white"/>
<path d="M35.9 37.1C36.7284 37.1 37.4 36.4284 37.4 35.6C37.4 34.7715 36.7284 34.1 35.9 34.1C35.0716 34.1 34.4 34.7715 34.4 35.6C34.4 36.4284 35.0716 37.1 35.9 37.1Z" fill="white"/>
</svg>
