<svg width="156" height="92" viewBox="0 0 156 92" fill="none" xmlns="http://www.w3.org/2000/svg">
<g clip-path="url(#clip0_19_2908)">
<path d="M73.8 30.2C75.7882 30.2 77.4 28.5882 77.4 26.6C77.4 24.6118 75.7882 23 73.8 23C71.8118 23 70.2 24.6118 70.2 26.6C70.2 28.5882 71.8118 30.2 73.8 30.2Z" fill="#FADD00"/>
<path d="M73.8 30.6C71.6 30.6 69.8 28.8 69.8 26.6C69.8 24.4 71.6 22.6 73.8 22.6C76 22.6 77.8 24.4 77.8 26.6C77.8 28.8 76 30.6 73.8 30.6ZM73.8 23.5C72.1 23.5 70.7 24.9 70.7 26.6C70.7 28.3 72.1 29.7 73.8 29.7C75.5 29.7 76.9 28.3 76.9 26.6C76.8 24.9 75.5 23.5 73.8 23.5Z" fill="#056295"/>
<path d="M100.7 30.2C102.688 30.2 104.3 28.5882 104.3 26.6C104.3 24.6118 102.688 23 100.7 23C98.7118 23 97.1 24.6118 97.1 26.6C97.1 28.5882 98.7118 30.2 100.7 30.2Z" fill="#FADD00"/>
<path d="M100.7 30.6C98.5 30.6 96.7 28.8 96.7 26.6C96.7 24.4 98.5 22.6 100.7 22.6C102.9 22.6 104.7 24.4 104.7 26.6C104.7 28.8 102.9 30.6 100.7 30.6ZM100.7 23.5C99 23.5 97.6 24.9 97.6 26.6C97.6 28.3 99 29.7 100.7 29.7C102.4 29.7 103.8 28.3 103.8 26.6C103.7 24.9 102.4 23.5 100.7 23.5Z" fill="#056295"/>
<path d="M48.1 42.9C50.0882 42.9 51.7 41.2882 51.7 39.3C51.7 37.3118 50.0882 35.7 48.1 35.7C46.1118 35.7 44.5 37.3118 44.5 39.3C44.5 41.2882 46.1118 42.9 48.1 42.9Z" fill="#FADD00"/>
<path d="M48.1 43.3C45.9 43.3 44.1 41.5 44.1 39.3C44.1 37.1 45.9 35.3 48.1 35.3C50.3 35.3 52.1 37.1 52.1 39.3C52.1 41.5 50.3 43.3 48.1 43.3ZM48.1 36.2C46.4 36.2 45 37.6 45 39.3C45 41 46.4 42.4 48.1 42.4C49.8 42.4 51.2 41 51.2 39.3C51.2 37.6 49.8 36.2 48.1 36.2Z" fill="#056295"/>
<path d="M62.5 81.5C64.4882 81.5 66.1 79.8882 66.1 77.9C66.1 75.9118 64.4882 74.3 62.5 74.3C60.5118 74.3 58.9 75.9118 58.9 77.9C58.9 79.8882 60.5118 81.5 62.5 81.5Z" fill="#FADD00"/>
<path d="M62.5 82C60.3 82 58.5 80.2 58.5 78C58.5 75.8 60.3 74 62.5 74C64.7 74 66.5 75.8 66.5 78C66.5 80.2 64.7 82 62.5 82ZM62.5 74.9C60.8 74.9 59.4 76.3 59.4 78C59.4 79.7 60.8 81.1 62.5 81.1C64.2 81.1 65.6 79.7 65.6 78C65.6 76.2 64.2 74.9 62.5 74.9Z" fill="#056295"/>
<path d="M64.4 39.5C64.4 43.9 62.8 47.7 59.6 50.8C56.4 54 52.6 55.6 48.1 55.6C43.6 55.6 39.8 54 36.6 50.8C33.4 47.6 31.8 43.8 31.8 39.3C31.8 34.8 33.4 31 36.6 27.8C39.8 24.6 43.6 23 48.1 23C51.7 23 54.9 24 57.7 26.1V3.3C57.7 2.4 58 1.6 58.7 1C59.4 0.3 60.1 0 61 0C61.9 0 62.7 0.3 63.3 1C64 1.7 64.3 2.4 64.3 3.3V39.5H64.4ZM57.8 40C57.8 39.8 57.8 39.6 57.8 39.4V38.2C57.6 36 56.6 34.1 55 32.5C53.1 30.6 50.8 29.7 48.2 29.7C45.5 29.7 43.3 30.6 41.4 32.5C39.5 34.4 38.6 36.7 38.6 39.3C38.6 42 39.5 44.2 41.4 46.1C43.3 48 45.6 48.9 48.2 48.9C50.9 48.9 53.2 48 55 46.1C56.8 44.4 57.7 42.4 57.8 40Z" fill="#056295"/>
<path d="M86.9 55.9C82.1 55.6 78.2 54 75.1 50.9C71.8 47.6 70.2 43.7 70.1 39.1V36.6C70.1 35.3 70.4 34.3 71.1 33.6C71.8 32.9 72.6 32.6 73.5 32.6C74.5 32.6 75.3 32.9 75.9 33.6C76.6 34.3 76.9 35.3 76.9 36.5V39C76.9 39.2 76.9 39.4 76.9 39.6C77 42.1 78 44.2 79.8 46C81.8 48 84.1 49 86.9 49H87C89.8 49 92.2 48 94.1 46C95.9 44.2 96.9 42.1 97 39.6C97 39.4 97 39.2 97 39V36.5C97 35.2 97.3 34.3 98 33.6C98.7 32.9 99.5 32.6 100.4 32.6C101.4 32.6 102.2 32.9 102.8 33.6C103.5 34.3 103.8 35.3 103.8 36.6V39.1C103.8 43.7 102.1 47.7 98.8 50.9C95.7 54 91.8 55.7 87 55.9H86.9Z" fill="#056295"/>
<path d="M0 14.1C0 13.2 0.3 12.5 0.9 11.8C1.5 11.2 2.3 10.9 3.2 10.9H24.4C25.3 10.9 26 11.2 26.7 11.8C27.3 12.4 27.6 13.2 27.6 14.1C27.6 15 27.3 15.7 26.7 16.4C26.1 17 25.3 17.3 24.4 17.3H6.4V28.7H19.6C20.5 28.7 21.2 29 21.9 29.6C22.5 30.2 22.8 31 22.8 31.9C22.8 32.8 22.5 33.5 21.9 34.2C21.3 34.8 20.5 35.1 19.6 35.1H6.4V49.5H24.4C25.3 49.5 26 49.8 26.7 50.4C27.3 51 27.6 51.8 27.6 52.7C27.6 53.6 27.3 54.3 26.7 55C26.1 55.6 25.3 55.9 24.4 55.9H3.2C2.3 55.9 1.6 55.6 0.9 55C0.3 54.4 0 53.6 0 52.7V14.1Z" fill="#056295"/>
<path d="M24.7 49.9C26.7 49.9 27.7 50.9 27.7 52.9C27.7 53.4 27.7 54.1 27.7 55C27.7 55.9 27.7 57.7 27.6 60.2C27.6 62.8 27.6 65.7 27.5 69C28.2 67.7 29.3 66.6 30.7 65.8C32.1 65 33.7 64.6 35.4 64.6C38.5 64.6 41 65.7 42.7 67.8C44.5 69.9 45.3 72.7 45.3 76V79.6V84.1V88.2C45.3 90 44.2 90.8 42 90.8C41.1 90.8 40.4 90.6 39.8 90.1C39.2 89.7 38.9 89 38.9 88.1C39.1 84.6 39.2 80.6 39.2 76.3C39.2 74.3 38.7 72.7 37.8 71.6C36.8 70.5 35.5 69.9 33.8 69.9C32.1 69.9 30.6 70.6 29.3 71.9C28 73.3 27.4 75 27.4 77.1C27.4 78.3 27.4 80.2 27.5 82.9C27.5 85.6 27.6 87.3 27.6 88.1C27.6 89 27.3 89.6 26.7 90.1C26.1 90.5 25.3 90.8 24.4 90.8C23.5 90.8 22.8 90.6 22.2 90.1C21.6 89.6 21.4 89 21.4 88.2C21.4 87.3 21.4 86 21.5 84.2C21.6 82.4 21.6 81.3 21.6 80.7L21.5 53C21.4 51.1 22.5 49.9 24.7 49.9Z" fill="#056295"/>
<path d="M80 71.7C80 70.3 80 69.3 79.9 68.7C79.9 68.1 79.9 67.7 79.9 67.6C79.9 65.7 80.9 64.8 83 64.8C84.6 64.8 85.5 65.6 85.7 67.2L85.8 69.2C86.5 67.8 87.5 66.7 89 66C90.5 65.2 91.9 64.8 93.4 64.8C95.2 64.8 96.8 65.3 98.1 66.2C99.4 67.1 100.4 68.3 100.9 69.8C101.7 68.4 102.9 67.2 104.4 66.3C105.9 65.4 107.5 64.9 109.3 64.9C112.5 64.9 114.9 65.8 116.5 67.8C118 69.8 118.8 72.5 118.8 75.8V81.5C118.8 82.7 118.8 85.2 118.7 88.8C118.6 90.4 117.6 91.2 115.6 91.2C114.7 91.2 114 91 113.4 90.6C112.8 90.2 112.6 89.6 112.6 88.8C112.7 81 112.8 77 112.8 76.8C112.8 72.5 111.3 70.3 108.3 70.3C106.7 70.3 105.3 70.8 104.3 71.9C103.3 73 102.7 74.4 102.7 76.4C102.7 77.8 102.6 79.8 102.6 82.3V88.1C102.5 90.2 101.4 91.2 99.4 91.2C97.5 91.1 96.5 90.3 96.5 88.6C96.6 81.2 96.6 77.1 96.6 76.1C96.5 74.4 96.1 73 95.3 71.8C94.5 70.7 93.4 70.1 91.9 70.1C87.9 70.1 86 72.8 86 78.3V88.6C86 90.2 84.9 91 82.8 91C82 91 81.3 90.8 80.7 90.4C80.1 90 79.8 89.3 79.8 88.4V85.4L80 77C80 74.9 80 73.1 80 71.7Z" fill="#056295"/>
<path d="M131.1 84C132.4 85.2 134 85.8 135.8 85.8C137.7 85.8 139.6 85.3 141.2 84.3C142 83.8 142.7 83.6 143.4 83.6C144.1 83.6 144.7 83.9 145.2 84.5C145.7 85.1 146 85.8 146 86.5C146 87.5 145.4 88.3 144.3 89.1C142 90.6 139 91.3 135.3 91.3C131.8 91.3 128.9 90.1 126.5 87.7C124.1 85.3 122.9 82.4 122.8 79C122.8 75 124 71.7 126.5 68.9C129 66.2 132 64.8 135.7 64.8C138.9 64.8 141.6 65.8 143.7 67.9C145.9 70 147 72.4 147 75.1C147 76.7 146.7 77.8 146.2 78.5C145.7 79.2 144.5 79.5 142.6 79.5C141.7 79.5 140.6 79.6 139.4 79.6C138.2 79.6 136.6 79.6 134.5 79.6C132.4 79.6 130.6 79.6 129 79.6C129.1 81.3 129.8 82.8 131.1 84ZM131.2 71.5C129.9 72.7 129.2 74.1 129 75.6C134.5 75.6 138.3 75.5 140.4 75.4C140.8 75.3 141.1 75.2 141.1 74.9C141.1 73.4 140.6 72.2 139.5 71.2C138.4 70.2 137.2 69.7 135.7 69.7C134 69.8 132.5 70.4 131.2 71.5Z" fill="#056295"/>
<path d="M75.9 77.9C75.9 85.3 69.9 91.3 62.5 91.3C55.1 91.3 49.1 85.3 49.1 77.9C49.1 70.5 55.1 64.5 62.5 64.5C69.9 64.5 75.9 70.5 75.9 77.9ZM62.5 69.9C58.1 69.9 54.5 73.5 54.5 77.9C54.5 82.3 58.1 85.9 62.5 85.9C66.9 85.9 70.5 82.3 70.5 77.9C70.5 73.5 66.9 69.9 62.5 69.9Z" fill="#056295"/>
<path d="M146.8 21.8C145.3 21 143.5 20.5 141.7 20.5C137.6 20.5 134 22.8 132.2 26.2C130.4 22.8 126.8 20.5 122.7 20.5C120.9 20.5 119.2 21 117.7 21.7L111.5 17V36.5C111.5 47.9 120.9 57.3 132.3 57.3C143.7 57.3 153 48.1 153 36.6V17.8L146.8 21.8Z" fill="#3EB44A"/>
<path d="M149.1 38.5C148.4 47.3 141.1 54.2 132.1 54.2C123.2 54.2 115.8 47.3 115.1 38.6C117 40.9 119.8 42.4 123 42.4C125.7 42.4 128.2 41.3 130 39.6C131.1 38.6 132.8 38.6 133.9 39.6C135.7 41.3 138.2 42.4 140.9 42.4C144.3 42.4 147.3 40.9 149.1 38.5Z" fill="#FADD00"/>
<path d="M144.7 0.599976H139V8.89997H144.7V0.599976Z" fill="#3FAD49"/>
<path d="M132.1 3.69995L109.1 9.79995L117.3 15.2V19.3C117.3 19.3 120 17.5 123.3 17.6C129.8 17.9 132 21.9 132 21.9C132 21.9 134.2 17.9 140.7 17.6C144 17.5 146.7 19.3 146.7 19.3V15.2L154.9 9.79995L132.1 3.69995Z" fill="#3EB44A"/>
<path d="M147.9 11L143.9 13.6V14.9C143 14.7 142 14.6 141.1 14.6C137.3 14.6 134.2 15.7 132.2 17.8C130.2 15.7 127.1 14.6 123.3 14.6C122.4 14.6 121.5 14.7 120.6 14.9V13.2L116.8 11L131.9 6.79999L147.9 11Z" fill="#FADD00"/>
<path d="M122.5 39.4C126.974 39.4 130.6 35.7735 130.6 31.2999C130.6 26.8264 126.974 23.2 122.5 23.2C118.027 23.2 114.4 26.8264 114.4 31.2999C114.4 35.7735 118.027 39.4 122.5 39.4Z" fill="white"/>
<path d="M122.6 36.8C125.638 36.8 128.1 34.3376 128.1 31.3C128.1 28.2624 125.638 25.8 122.6 25.8C119.562 25.8 117.1 28.2624 117.1 31.3C117.1 34.3376 119.562 36.8 122.6 36.8Z" fill="black"/>
<path d="M120.2 30.4C121.746 30.4 123 29.1464 123 27.6C123 26.0536 121.746 24.8 120.2 24.8C118.654 24.8 117.4 26.0536 117.4 27.6C117.4 29.1464 118.654 30.4 120.2 30.4Z" fill="white"/>
<path d="M141.6 39.4C146.074 39.4 149.7 35.7735 149.7 31.2999C149.7 26.8264 146.074 23.2 141.6 23.2C137.126 23.2 133.5 26.8264 133.5 31.2999C133.5 35.7735 137.126 39.4 141.6 39.4Z" fill="white"/>
<path d="M141.7 36.8C144.738 36.8 147.2 34.3376 147.2 31.3C147.2 28.2624 144.738 25.8 141.7 25.8C138.662 25.8 136.2 28.2624 136.2 31.3C136.2 34.3376 138.662 36.8 141.7 36.8Z" fill="black"/>
<path d="M139.3 30.4C140.846 30.4 142.1 29.1464 142.1 27.6C142.1 26.0536 140.846 24.8 139.3 24.8C137.754 24.8 136.5 26.0536 136.5 27.6C136.5 29.1464 137.754 30.4 139.3 30.4Z" fill="white"/>
<path d="M136.9 40.8L132.1 47.7L127.3 40.8C127.3 40.8 128.5 38 131.2 37.5C131.5 37.4 131.8 37.4 132.1 37.4C132.4 37.4 132.7 37.4 133 37.5C135.7 38 136.9 40.8 136.9 40.8Z" fill="white"/>
<path d="M132.1 49.4L126.2 40.9L126.4 40.4C126.5 40.3 127.9 37.2 131 36.5C131.5 36.4 132.1 36.4 132.6 36.4L133.1 36.5L133.8 36.6V36.7C136.4 37.6 137.6 40.2 137.6 40.4L137.8 40.9L137.4 41.4L132.1 49.4ZM128.5 40.7L132.1 46L135.7 40.7C135.3 40.1 134.5 39 133.3 38.5V38.6L132.8 38.4C132.3 38.3 131.9 38.3 131.5 38.4C129.9 38.7 128.9 40 128.5 40.7Z" fill="#3EB44A"/>
<path d="M125.8 37.1C126.628 37.1 127.3 36.4284 127.3 35.6C127.3 34.7715 126.628 34.1 125.8 34.1C124.972 34.1 124.3 34.7715 124.3 35.6C124.3 36.4284 124.972 37.1 125.8 37.1Z" fill="white"/>
<path d="M144.9 37.1C145.728 37.1 146.4 36.4284 146.4 35.6C146.4 34.7715 145.728 34.1 144.9 34.1C144.072 34.1 143.4 34.7715 143.4 35.6C143.4 36.4284 144.072 37.1 144.9 37.1Z" fill="white"/>
</g>
<defs>
<clipPath id="clip0_19_2908">
<rect width="155.1" height="91.3" fill="white"/>
</clipPath>
</defs>
</svg>
