<svg width="60" height="23" viewBox="0 0 60 23" fill="none" xmlns="http://www.w3.org/2000/svg">
<path d="M14.7178 17.9199V21.875H3.93652V17.9199H14.7178ZM5.76758 0.546875V21.875H0.625977V0.546875H5.76758ZM19.4346 0.546875H23.624L28.3848 15.3857L33.1455 0.546875H37.335L30.084 21.875H26.6855L19.4346 0.546875ZM16.8857 0.546875H21.2217L22.0273 16.8945V21.875H16.8857V0.546875ZM35.5479 0.546875H39.8984V21.875H34.7422V16.8945L35.5479 0.546875ZM54.1807 16.2061C54.1807 15.874 54.1318 15.5762 54.0342 15.3125C53.9365 15.0391 53.7559 14.7852 53.4922 14.5508C53.2285 14.3164 52.8477 14.082 52.3496 13.8477C51.8613 13.6035 51.2168 13.3496 50.416 13.0859C49.4785 12.7734 48.5752 12.4219 47.7061 12.0312C46.8369 11.6309 46.0605 11.167 45.377 10.6396C44.6934 10.1025 44.1514 9.47754 43.751 8.76465C43.3506 8.04199 43.1504 7.20215 43.1504 6.24512C43.1504 5.32715 43.3555 4.50195 43.7656 3.76953C44.1758 3.02734 44.7471 2.39746 45.4795 1.87988C46.2217 1.35254 47.0908 0.952148 48.0869 0.678711C49.083 0.395508 50.1719 0.253906 51.3535 0.253906C52.916 0.253906 54.293 0.527344 55.4844 1.07422C56.6855 1.61133 57.623 2.37793 58.2969 3.37402C58.9805 4.36035 59.3223 5.52734 59.3223 6.875H54.21C54.21 6.33789 54.0977 5.86426 53.873 5.4541C53.6582 5.04395 53.3311 4.72168 52.8916 4.4873C52.4521 4.25293 51.9004 4.13574 51.2363 4.13574C50.5918 4.13574 50.0498 4.2334 49.6104 4.42871C49.1709 4.62402 48.8389 4.8877 48.6143 5.21973C48.3896 5.54199 48.2773 5.89844 48.2773 6.28906C48.2773 6.61133 48.3652 6.9043 48.541 7.16797C48.7266 7.42188 48.9854 7.66113 49.3174 7.88574C49.6592 8.11035 50.0693 8.3252 50.5479 8.53027C51.0361 8.73535 51.583 8.93555 52.1885 9.13086C53.3213 9.49219 54.3271 9.89746 55.2061 10.3467C56.0947 10.7861 56.8418 11.2891 57.4473 11.8555C58.0625 12.4121 58.5264 13.0469 58.8389 13.7598C59.1611 14.4727 59.3223 15.2783 59.3223 16.1768C59.3223 17.1338 59.1367 17.9834 58.7656 18.7256C58.3945 19.4678 57.8623 20.0977 57.1689 20.6152C56.4756 21.123 55.6455 21.5088 54.6787 21.7725C53.7119 22.0361 52.6328 22.168 51.4414 22.168C50.3477 22.168 49.2686 22.0312 48.2041 21.7578C47.1494 21.4746 46.1924 21.0449 45.333 20.4688C44.4736 19.8828 43.7852 19.1357 43.2676 18.2275C42.7598 17.3096 42.5059 16.2207 42.5059 14.9609H47.6621C47.6621 15.5859 47.7451 16.1133 47.9111 16.543C48.0771 16.9727 48.3213 17.3193 48.6436 17.583C48.9658 17.8369 49.3613 18.0225 49.8301 18.1396C50.2988 18.2471 50.8359 18.3008 51.4414 18.3008C52.0957 18.3008 52.623 18.208 53.0234 18.0225C53.4238 17.8271 53.7168 17.5732 53.9023 17.2607C54.0879 16.9385 54.1807 16.5869 54.1807 16.2061Z" fill="white"/>
</svg>
