<svg width="144" height="40" viewBox="0 0 144 40" fill="none" xmlns="http://www.w3.org/2000/svg">
<path d="M55.3271 8.71189C55.3271 7.18593 56.5546 6 58.1137 6C59.5982 6 60.8256 7.18593 60.8256 8.71189C60.8256 10.2378 59.5982 11.457 58.1137 11.457C56.5463 11.457 55.3271 10.2378 55.3271 8.71189ZM55.8413 15.1392H60.3694V33.4838H55.8413V15.1392Z" fill="#7660FE"/>
<path d="M65.0215 21.558H76.9804V25.572H65.0215V21.558Z" fill="#7660FE"/>
<path d="M84.3947 33.4837V14.3385H78V9.41666H84.3947H88.9228H100L95 14.3385H88.9228V33.492H84.3947V33.4837Z" fill="#FF6337"/>
<path d="M94.0479 24.3109C94.0479 18.5554 97.7964 14.583 103.187 14.583C108.685 14.583 112.177 18.2569 112.177 23.9792V25.3559L98.3603 25.3891C98.6921 28.6234 100.4 30.2572 103.411 30.2572C105.899 30.2572 107.533 29.2952 108.055 27.5453H112.252C111.472 31.5592 108.13 33.9726 103.336 33.9726C97.8793 33.9643 94.0479 29.9918 94.0479 24.3109ZM98.4682 22.4864H107.682C107.682 19.957 105.94 18.29 103.228 18.29C100.55 18.29 98.916 19.7414 98.4682 22.4864Z" fill="#FF6337"/>
<path d="M118.712 27.9102C118.746 29.5108 119.94 30.506 122.021 30.506C124.136 30.506 125.289 29.6518 125.289 28.3166C125.289 27.3877 124.808 26.716 123.174 26.3511L119.865 25.5715C116.556 24.8251 114.964 23.266 114.964 20.3385C114.964 16.7392 118.007 14.583 122.245 14.583C126.367 14.583 129.154 16.9631 129.187 20.5292H124.883C124.849 18.9701 123.804 17.9666 122.063 17.9666C120.28 17.9666 119.243 18.7793 119.243 20.156C119.243 21.1927 120.064 21.8644 121.623 22.2376L124.932 23.0172C128.017 23.7221 129.577 25.132 129.577 27.96C129.577 31.6753 126.417 33.9726 121.889 33.9726C117.319 33.9726 114.425 31.5178 114.425 27.9185H118.712V27.9102Z" fill="#FF6337"/>
<path d="M134.727 33.4839V18.9292H131.202V15.1392H134.727V9.41683H139.255V15.1392H142.821V18.9292H139.255V33.4922H134.727V33.4839Z" fill="#FF6337"/>
<path d="M7.06101 13.7795C3.16443 13.7795 0 10.7054 0 6.91993C0 3.13449 3.16443 0.0603256 7.06101 0.0603256C10.9576 0.0603256 14.122 3.13449 14.122 6.91993C14.122 10.7054 10.9576 13.7795 7.06101 13.7795Z" fill="#7660FE"/>
<path d="M15.8223 13.7554V6.85961C15.8223 3.07417 18.9867 0 22.8957 0H48.0001V13.7554H15.8223Z" fill="url(#paint0_linear_2241_64247)"/>
<path d="M45.7792 39.8195H31.5703V26.0159" fill="#7660FE"/>
<path fill-rule="evenodd" clip-rule="evenodd" d="M15.834 26.0521C15.834 33.6229 22.1505 39.7713 29.956 39.7713L29.9853 13.3427C30.1973 11.1087 31.9448 0 45.7295 0H30H22.895C18.986 0 15.8216 3.07417 15.834 6.85961V26.0521Z" fill="url(#paint1_linear_2241_64247)"/>
<defs>
<linearGradient id="paint0_linear_2241_64247" x1="25.4664" y1="6.87588" x2="47.2216" y2="6.87588" gradientUnits="userSpaceOnUse">
<stop offset="0.207" stop-color="#730B16"/>
<stop offset="0.3068" stop-color="#921C1B"/>
<stop offset="0.4356" stop-color="#B42E21"/>
<stop offset="0.5679" stop-color="#CE3C25"/>
<stop offset="0.7034" stop-color="#E04629"/>
<stop offset="0.8441" stop-color="#EB4C2A"/>
<stop offset="0.998" stop-color="#EF4E2B"/>
</linearGradient>
<linearGradient id="paint1_linear_2241_64247" x1="22.8894" y1="-0.480896" x2="22.8894" y2="38.1866" gradientUnits="userSpaceOnUse">
<stop offset="0.00372439" stop-color="#F79945"/>
<stop offset="0.9943" stop-color="#EF4E2B"/>
</linearGradient>
</defs>
</svg>
